HIERARCHY
ROOT Hips
{
	OFFSET 38.052399 -3.337716 98.812698
	CHANNELS 6 Xposition Yposition Zposition Xrotation Yrotation Zrotation
	JOINT spine
	{
		OFFSET 0.000000 -0.477352 8.301041
		CHANNELS 3 Xrotation Yrotation Zrotation
		JOINT spine1
		{
			OFFSET 0.000000 -0.000002 10.456497
			CHANNELS 3 Xrotation Yrotation Zrotation
			JOINT spine2
			{
				OFFSET 0.000000 -0.000002 10.019203
				CHANNELS 3 Xrotation Yrotation Zrotation
				JOINT Neck
				{
					OFFSET 0.000000 -1.226414 25.723503
					CHANNELS 3 Xrotation Yrotation Zrotation
					JOINT Head
					{
						OFFSET 0.000000 -0.000001 7.771744
						CHANNELS 3 Xrotation Yrotation Zrotation
						End Site
						{
							OFFSET 0.000000 6.203937 18.811996
						}
					}
				}
				JOINT RightShoulder
				{
					OFFSET -4.218800 0.587437 10.820000
					CHANNELS 3 Xrotation Yrotation Zrotation
					JOINT RightArm
					{
						OFFSET 0.000000 -0.000002 14.191406
						CHANNELS 3 Xrotation Yrotation Zrotation
						JOINT RightArmRoll
						{
							OFFSET 0.000000 -0.000001 7.164078
							CHANNELS 3 Xrotation Yrotation Zrotation
							JOINT RightForeArm
							{
								OFFSET 0.000000 -0.000003 20.866501
								CHANNELS 3 Xrotation Yrotation Zrotation
								JOINT RightForeArmRoll
								{
									OFFSET 0.000000 -0.000001 8.039215
									CHANNELS 3 Xrotation Yrotation Zrotation
									JOINT RightHand
									{
										OFFSET 0.000000 -0.000003 16.132996
										CHANNELS 3 Xrotation Yrotation Zrotation
										End Site
										{
											OFFSET 0.000000 0.000000 0.100006
										}
									}
								}
							}
						}
					}
				}
				JOINT LeftShoulder
				{
					OFFSET 4.218800 0.587437 10.820000
					CHANNELS 3 Xrotation Yrotation Zrotation
					JOINT LeftArm
					{
						OFFSET 0.000000 -0.000002 14.191406
						CHANNELS 3 Xrotation Yrotation Zrotation
						JOINT LeftArmRoll
						{
							OFFSET 0.000000 -0.000001 7.164078
							CHANNELS 3 Xrotation Yrotation Zrotation
							JOINT LeftForeArm
							{
								OFFSET 0.000000 -0.000003 20.866501
								CHANNELS 3 Xrotation Yrotation Zrotation
								JOINT LeftForeArmRoll
								{
									OFFSET 0.000000 -0.000001 8.039215
									CHANNELS 3 Xrotation Yrotation Zrotation
									JOINT LeftHand
									{
										OFFSET 0.000000 -0.000003 16.132996
										CHANNELS 3 Xrotation Yrotation Zrotation
										End Site
										{
											OFFSET 0.000000 0.000000 0.100006
										}
									}
								}
							}
						}
					}
				}
			}
		}
	}
	JOINT RightUpLeg
	{
		OFFSET -7.357731 1.131810 -1.349213
		CHANNELS 3 Xrotation Yrotation Zrotation
		JOINT RightUpLegRoll
		{
			OFFSET 0.000000 -0.000003 18.916801
			CHANNELS 3 Xrotation Yrotation Zrotation
			JOINT RightLeg
			{
				OFFSET 0.000000 0.000004 -23.425598
				CHANNELS 3 Xrotation Yrotation Zrotation
				JOINT RightLegRoll
				{
					OFFSET 0.000000 -0.000004 23.502296
					CHANNELS 3 Xrotation Yrotation Zrotation
					JOINT RightFoot
					{
						OFFSET 0.000000 -0.000003 19.561707
						CHANNELS 3 Xrotation Yrotation Zrotation
						JOINT RightToeBase
						{
							OFFSET 0.000000 -0.000003 16.352600
							CHANNELS 3 Xrotation Yrotation Zrotation
							End Site
							{
								OFFSET 0.006931 0.912836 7.919434
							}
						}
					}
				}
			}
		}
	}
	JOINT LeftUpLeg
	{
		OFFSET 7.357731 1.131810 -1.349213
		CHANNELS 3 Xrotation Yrotation Zrotation
		JOINT LeftUpLegRoll
		{
			OFFSET 0.000000 -0.000003 18.916901
			CHANNELS 3 Xrotation Yrotation Zrotation
			JOINT LeftLeg
			{
				OFFSET 0.000000 -0.000004 23.425507
				CHANNELS 3 Xrotation Yrotation Zrotation
				JOINT LeftLegRoll
				{
					OFFSET 0.000000 -0.000004 23.719498
					CHANNELS 3 Xrotation Yrotation Zrotation
					JOINT LeftFoot
					{
						OFFSET 0.000000 -0.000003 19.344406
						CHANNELS 3 Xrotation Yrotation Zrotation
						JOINT LeftToeBase
						{
							OFFSET 0.000000 -0.000003 16.352600
							CHANNELS 3 Xrotation Yrotation Zrotation
							End Site
							{
								OFFSET -0.031063 0.912836 7.919434
							}
						}
					}
				}
			}
		}
	}
}
MOTION
Frames: 9
Frame Time: 0.041667
38.098297 -4.052709 98.769798 -4.311332 -0.780742 0.882393 -1.208511 -0.023923 0.131577 1.585230 -0.032122 0.266827 3.230300 -0.029103 0.267227 24.379440 0.682294 -1.539167 -9.293261 -0.489593 -1.477244 -1.730286 -76.529988 -3.897266 -82.796386 -113.570746 -61.243205 0.000005 0.000006 0.000005 0.103358 -13.364582 -0.449982 -0.000007 -0.000000 -3.064432 -5.000209 -7.998712 0.000175 11.907349 68.251758 -12.086384 -51.484661 104.259450 34.742382 -0.000001 -0.000004 0.000004 3.722588 11.280864 0.103956 0.000002 -0.000003 3.003220 -5.000231 7.998732 -0.000162 2.777262 -175.163657 2.147912 -179.999991 0.000005 -1.134995 174.777888 -4.209513 -0.623380 -0.000000 0.000002 0.059394 68.654828 6.894712 2.154969 25.456851 -7.355620 -0.000012 3.036437 175.821842 0.489649 -0.000005 -0.000005 -1.225170 -9.148339 3.222530 0.959239 -0.000003 -0.000001 -0.116257 68.606955 -6.923882 -2.056383 25.456959 7.355614 -0.000001 
38.098797 -4.039548 98.772896 -4.312938 -0.778871 0.883694 -1.209281 -0.023901 0.131578 1.583030 -0.031993 0.265994 3.228100 -0.028975 0.266395 24.397791 0.691227 -1.539771 -9.301194 -0.505034 -1.477252 -1.714276 -76.537693 -3.880860 -82.765330 -113.545311 -61.332428 0.000003 0.000005 0.000004 0.101643 -13.478083 -0.436732 -0.000007 -0.000000 -3.063040 -5.000209 -7.998714 0.000175 11.914429 68.254900 -12.093658 -51.510339 104.256329 34.818218 0.000000 -0.000004 0.000003 3.856108 11.306512 0.091645 0.000001 -0.000003 3.003220 -5.000231 7.998731 -0.000162 2.778247 -175.165652 2.150429 -179.999991 0.000005 -1.134995 174.774432 -4.213475 -0.623997 -0.000000 0.000002 0.059394 68.653346 6.894688 2.154957 25.456856 -7.355621 -0.000013 3.040718 175.821869 0.495983 -0.000005 -0.000004 -1.225170 -9.143989 3.214473 0.959232 -0.000002 -0.000001 -0.116257 68.609892 -6.923859 -2.056396 25.456957 7.355613 -0.000001 
38.098900 -4.045010 98.767601 -4.314377 -0.776970 0.885066 -1.210111 -0.023869 0.131578 1.580660 -0.031800 0.265100 3.225719 -0.028784 0.265501 24.417136 0.700097 -1.540249 -9.310050 -0.520871 -1.477139 -1.697316 -76.546108 -3.863504 -82.735823 -113.518577 -61.422334 0.000004 0.000005 0.000004 0.098640 -13.591884 -0.424111 -0.000007 -0.000000 -3.061681 -5.000210 -7.998712 0.000175 11.921062 68.257871 -12.100450 -51.533309 104.252859 34.889856 0.000001 -0.000004 0.000004 3.987207 11.331624 0.079388 0.000002 -0.000003 3.003219 -5.000230 7.998731 -0.000161 2.779127 -175.166663 2.153225 -179.999991 0.000005 -1.134995 174.771017 -4.217438 -0.623614 0.000000 0.000002 0.059394 68.651761 6.894690 2.154955 25.456854 -7.355622 -0.000012 3.045087 175.822894 0.502631 -0.000005 -0.000005 -1.225170 -9.139267 3.206153 0.959224 -0.000004 -0.000001 -0.116257 68.612850 -6.923875 -2.056314 25.456955 7.355615 -0.000001 
38.093796 -4.060021 98.770302 -4.315682 -0.775043 0.886486 -1.210990 -0.023830 0.131577 1.578171 -0.031564 0.264161 3.223230 -0.028549 0.264563 24.437193 0.708925 -1.540636 -9.319553 -0.536986 -1.476922 -1.679668 -76.554932 -3.845458 -82.707382 -113.490976 -61.512752 0.000003 0.000006 0.000005 0.094733 -13.705986 -0.411940 -0.000006 -0.000002 -3.060338 -5.000209 -7.998712 0.000175 11.927383 68.260767 -12.106910 -51.553882 104.248959 34.958155 0.000001 -0.000005 0.000003 4.116605 11.356493 0.067131 0.000003 -0.000003 3.003220 -5.000230 7.998732 -0.000161 2.779922 -175.168671 2.156115 -179.999991 0.000005 -1.134995 174.767575 -4.222394 -0.623326 0.000000 0.000002 0.059394 68.650184 6.894692 2.154953 25.456856 -7.355621 -0.000012 3.049514 175.823904 0.509461 -0.000004 -0.000004 -1.225170 -9.134272 3.197667 0.959219 -0.000005 -0.000001 -0.116257 68.615807 -6.923890 -2.056231 25.456959 7.355613 0.000000 
38.092094 -4.056964 98.767906 -4.316931 -0.773105 0.887936 -1.211889 -0.023786 0.131578 1.575610 -0.031302 0.263196 3.220670 -0.028289 0.263600 24.457644 0.717726 -1.540973 -9.329428 -0.553260 -1.476660 -1.661621 -76.564057 -3.827015 -82.679529 -113.462747 -61.603354 0.000003 0.000005 0.000005 0.090310 -13.820285 -0.400040 -0.000007 0.000000 -3.059019 -5.000207 -7.998713 0.000174 11.933545 68.263677 -12.113206 -51.573621 104.244984 35.025132 -0.000001 -0.000004 0.000003 4.245043 11.381114 0.054839 0.000003 -0.000003 3.003221 -5.000232 7.998731 -0.000161 2.780681 -175.169668 2.159151 -179.999991 0.000005 -1.134995 174.764132 -4.227350 -0.624034 0.000000 0.000002 0.059394 68.648715 6.894704 2.154949 25.456858 -7.355620 -0.000013 3.053974 175.824915 0.516394 -0.000005 -0.000004 -1.225170 -9.129139 3.189071 0.959214 -0.000003 -0.000002 -0.116257 68.618860 -6.923875 -2.056236 25.456957 7.355614 -0.000000 
38.095695 -4.059870 98.769592 -4.318162 -0.771162 0.889392 -1.212789 -0.023741 0.131577 1.573030 -0.031033 0.262226 3.218090 -0.028023 0.262630 24.478093 0.726522 -1.541297 -9.339406 -0.569574 -1.476392 -1.643450 -76.573182 -3.808442 -82.651983 -113.434183 -61.694230 0.000005 0.000006 0.000006 0.085753 -13.934587 -0.388219 -0.000007 0.000000 -3.057702 -5.000210 -7.998714 0.000174 11.939677 68.266573 -12.119480 -51.593108 104.240926 35.091548 0.000000 -0.000005 0.000001 4.373270 11.405675 0.042448 0.000003 -0.000003 3.003220 -5.000230 7.998732 -0.000161 2.781430 -175.170665 2.162205 -179.999991 0.000005 -1.134995 174.760704 -4.232307 -0.623745 -0.000000 0.000002 0.059394 68.647137 6.894705 2.154946 25.456860 -7.355620 -0.000012 3.058431 175.825940 0.523355 -0.000005 -0.000005 -1.225170 -9.123952 3.180459 0.959210 -0.000003 -0.000001 -0.116257 68.621825 -6.923888 -2.056253 25.456957 7.355614 -0.000001 
38.096497 -4.064109 98.799004 -4.319430 -0.769227 0.890835 -1.213690 -0.023699 0.131578 1.570480 -0.030777 0.261269 3.215540 -0.027768 0.261674 24.498449 0.735329 -1.541662 -9.349194 -0.585808 -1.476154 -1.625449 -76.582198 -3.790042 -82.624662 -113.405825 -61.785440 0.000005 0.000005 0.000004 0.081449 -14.048789 -0.376294 -0.000008 0.000000 -3.056381 -5.000209 -7.998713 0.000174 11.945850 68.269387 -12.125783 -51.613175 104.236897 35.158952 0.000001 -0.000006 0.000004 4.501999 11.430360 0.029910 0.000002 -0.000003 3.003221 -5.000233 7.998731 -0.000161 2.782198 -175.171662 2.165212 -179.999991 0.000006 -1.134995 174.757275 -4.237262 -0.624453 -0.000000 0.000002 0.059394 68.645655 6.894682 2.154935 25.456860 -7.355623 -0.000012 3.062881 175.825953 0.530210 -0.000005 -0.000004 -1.225170 -9.118848 3.171893 0.959210 -0.000003 -0.000002 -0.116257 68.624864 -6.923875 -2.056161 25.456960 7.355614 0.000001 
38.090797 -4.056791 98.790703 -4.320776 -0.767308 0.892242 -1.214552 -0.023661 0.131577 1.568020 -0.030552 0.260343 3.213080 -0.027546 0.260748 24.518306 0.744167 -1.542100 -9.358513 -0.601844 -1.475985 -1.607899 -76.590914 -3.772096 -82.596631 -113.377705 -61.876275 0.000003 0.000005 0.000004 0.077784 -14.162790 -0.364061 -0.000005 -0.000001 -3.055032 -5.000210 -7.998714 0.000175 11.952281 68.272372 -12.132371 -51.634622 104.233106 35.228415 -0.000000 -0.000005 0.000002 4.631984 11.455265 0.017166 0.000003 -0.000003 3.003220 -5.000230 7.998733 -0.000161 2.783020 -175.173670 2.168064 -179.999991 0.000005 -1.134995 174.753819 -4.241224 -0.624063 0.000000 0.000002 0.059394 68.644071 6.894683 2.154936 25.456856 -7.355621 -0.000012 3.067288 175.826964 0.536988 -0.000005 -0.000004 -1.225170 -9.113936 3.163455 0.959210 -0.000003 -0.000001 -0.116257 68.627821 -6.923887 -2.056178 25.456955 7.355613 0.000000 
38.092796 -4.060233 98.767609 -4.322266 -0.765416 0.893593 -1.215359 -0.023633 0.131578 1.565700 -0.030378 0.259466 3.210760 -0.027373 0.259874 24.537361 0.753055 -1.542656 -9.367105 -0.617563 -1.475931 -1.591077 -76.599014 -3.754875 -82.568381 -113.350411 -61.967643 0.000003 0.000006 0.000004 0.075152 -14.276593 -0.351338 -0.000007 -0.000001 -3.053659 -5.000210 -7.998713 0.000174 11.959083 68.275432 -12.139348 -51.658189 104.229670 35.301174 -0.000000 -0.000004 0.000005 4.763948 11.480566 0.004161 0.000001 -0.000003 3.003221 -5.000227 7.998733 -0.000162 2.783932 -175.174681 2.170782 -179.999991 0.000006 -1.134995 174.750349 -4.246180 -0.623777 0.000000 0.000002 0.059394 68.642493 6.894688 2.154933 25.456860 -7.355621 -0.000012 3.071628 175.827989 0.543559 -0.000005 -0.000004 -1.225170 -9.109325 3.155211 0.959211 -0.000004 -0.000002 -0.116257 68.630786 -6.923902 -2.056094 25.456955 7.355613 -0.000001 
